PathFileType	4	(X/Y/Z)	./resultDataOpenSim/trcMotMarkerGrf/sub10/qtm-12-03.trc
DataRate	CameraRate	NumFrames	NumMarkers	Units	OrigDataRate	OrigDataStartFrame	OrigNumFrames
250.000000	250.000000	11	24	m	250.000000	59	466
Frame#	Time	L.Toe.Tip			R.Toe.Tip			L.Ankle.Lat			R.Ankle.Lat			L.Ankle.Med			R.Ankle.Med			L.Heel			R.Heel			L.Knee.Lat			R.Knee.Lat			L.Knee.Med			R.Knee.Med			L.Thigh.Upper			R.Thigh.Upper			L.ASIS			R.ASIS			V.Sacral			L.Acromium			R.Acromium			C7			L.Elbow			R.Elbow			L.Wrist.Lat			R.Wrist.Lat
		X1	Y1	Z1	X2	Y2	Z2	X3	Y3	Z3	X4	Y4	Z4	X5	Y5	Z5	X6	Y6	Z6	X7	Y7	Z7	X8	Y8	Z8	X9	Y9	Z9	X10	Y10	Z10	X11	Y11	Z11	X12	Y12	Z12	X13	Y13	Z13	X14	Y14	Z14	X15	Y15	Z15	X16	Y16	Z16	X17	Y17	Z17	X18	Y18	Z18	X19	Y19	Z19	X20	Y20	Z20	X21	Y21	Z21	X22	Y22	Z22	X23	Y23	Z23	X24	Y24	Z24

59	0.232	-1.420422	0.055260768	-0.11553647	-0.74723152	0.041071719	-0.017123401	-1.4125335	0.18814001	-0.17024455	-0.88031029	0.051325663	0.036380301	-1.3790667	0.18841135	-0.093512962	-0.87549682	0.082547661	-0.047369095	-1.4458563	0.24190389	-0.12403697	-0.93749897	0.027761885	-0.006600006	-1.116117	0.41978059	-0.20823342	-0.8911987	0.45359623	0.083000155	-1.0846654	0.37723833	-0.098856199	-0.91128841	0.45924	-0.044730084	-1.0594711	0.79881874	-0.23153661	-0.98555396	0.86004971	0.14530154	-0.98606201	0.91160909	-0.17806239	-0.94023351	0.94772288	0.052011975	-1.159778	0.9424833	-0.024185872	-1.0369247	1.3994324	-0.20146209	-1.0683513	1.3922098	0.12271644	-1.1346305	1.4219676	-0.049814459	-1.049005	1.0496567	-0.26053485	-1.2048155	1.0810954	0.14640501	-0.82148477	0.94703239	-0.22372478	-1.1846928	0.85997312	0.24429583
60	0.236	-1.4127614	0.057600855	-0.11755356	-0.74704968	0.040862203	-0.017220147	-1.4013072	0.19045536	-0.17199436	-0.88031112	0.051246084	0.036433307	-1.3690045	0.19033627	-0.094868888	-0.87521568	0.082515499	-0.047362106	-1.434106	0.24485899	-0.1258603	-0.93752226	0.027769831	-0.0065030295	-1.1046926	0.41949009	-0.20927025	-0.88863078	0.45359536	0.083484044	-1.0725074	0.37739556	-0.099802193	-0.90737813	0.45937622	-0.044439162	-1.0520712	0.79890857	-0.23144657	-0.97856102	0.86119116	0.14598529	-0.97966734	0.91166492	-0.17795571	-0.93375388	0.94795018	0.052019649	-1.1545908	0.94282627	-0.025058729	-1.0310246	1.3999606	-0.20142164	-1.0619899	1.3926448	0.12309494	-1.1290717	1.4225348	-0.049378791	-1.0443599	1.0502397	-0.26055286	-1.1976351	1.0810252	0.14701629	-0.81720799	0.94639724	-0.2243037	-1.1771251	0.85985931	0.24494165
61	0.24	-1.4038729	0.059978331	-0.11976047	-0.74688603	0.040670944	-0.017343915	-1.3901608	0.19274049	-0.17356438	-0.88034174	0.051173828	0.036504347	-1.3582743	0.19232045	-0.096238675	-0.87496802	0.082506857	-0.047344966	-1.4227374	0.24748307	-0.12741341	-0.9375565	0.027762911	-0.0064114224	-1.0932106	0.41926534	-0.21024616	-0.88633858	0.45372166	0.083934619	-1.0610154	0.37793821	-0.10052999	-0.9036802	0.45954848	-0.044141982	-1.044716	0.79913642	-0.23139037	-0.97142502	0.86231048	0.14669516	-0.97330932	0.91174199	-0.17790126	-0.92730295	0.94816842	0.051971133	-1.1489272	0.94309317	-0.02541719	-1.0250074	1.4004867	-0.20141259	-1.0555373	1.3930991	0.12343465	-1.1234241	1.4232317	-0.048934898	-1.0397179	1.0508307	-0.26054116	-1.190417	1.0809636	0.14771455	-0.81300829	0.94570296	-0.22495285	-1.1694259	0.85969847	0.24552335
62	0.244	-1.3937807	0.062268288	-0.12210129	-0.74671798	0.040497568	-0.017475969	-1.3791041	0.1949975	-0.17496413	-0.88037946	0.051116871	0.036587237	-1.3471878	0.19433757	-0.097575009	-0.8747104	0.082517546	-0.047329379	-1.4117312	0.24982132	-0.12881016	-0.93758932	0.027745633	-0.0063319595	-1.0816654	0.41914692	-0.21116025	-0.88419513	0.45393983	0.084340183	-1.0499111	0.37878911	-0.10111303	-0.90017832	0.45973607	-0.043855822	-1.0374298	0.79949016	-0.23136318	-0.9647359	0.86329576	0.1472508	-0.96697079	0.91188258	-0.17787531	-0.92088719	0.94841267	0.051904047	-1.1429615	0.94332921	-0.025363018	-1.0189578	1.4010233	-0.20144994	-1.0489776	1.3935652	0.12370708	-1.1176797	1.4240374	-0.048482247	-1.0350967	1.0514222	-0.26051776	-1.1831446	1.0809161	0.14850019	-0.80885605	0.94497234	-0.22563617	-1.1614006	0.85953944	0.2460839
63	0.248	-1.3826273	0.064337096	-0.1245274	-0.74653927	0.040343603	-0.017602698	-1.3680405	0.19717999	-0.17623782	-0.88040711	0.051076445	0.036673578	-1.3360475	0.19632805	-0.09881805	-0.8744092	0.082539342	-0.047327049	-1.4010261	0.25191402	-0.13028719	-0.93761565	0.027725162	-0.0062632893	-1.0700366	0.41918177	-0.21201862	-0.88207461	0.45418256	0.084695094	-1.038738	0.37983722	-0.10162288	-0.89683959	0.45992243	-0.043590246	-1.0302291	0.79995111	-0.23136057	-0.95896969	0.8640636	0.14752087	-0.96067272	0.91213023	-0.17788044	-0.91448826	0.94871868	0.051875698	-1.1369627	0.94354813	-0.025197261	-1.0129514	1.4015755	-0.20154227	-1.0423103	1.3940381	0.12390208	-1.1118387	1.4249402	-0.048010014	-1.0305111	1.052009	-0.2604891	-1.1758099	1.0808907	0.1493662	-0.80473212	0.94421324	-0.22631617	-1.1530076	0.85940417	0.24664441
64	0.252	-1.3705887	0.066111071	-0.12701708	-0.74635718	0.040210864	-0.017724009	-1.3568635	0.19922594	-0.17741885	-0.8804167	0.051049491	0.036754512	-1.3249594	0.19822309	-0.099936536	-0.87406298	0.082566344	-0.047343977	-1.3904915	0.2537706	-0.13196369	-0.93763673	0.027708135	-0.0062025398	-1.0582848	0.419392	-0.21283299	-0.87994366	0.45440735	0.085003273	-1.0272637	0.38096655	-0.10208722	-0.8936605	0.46011034	-0.043341576	-1.0231263	0.80050092	-0.231375	-0.95413102	0.86462392	0.14752897	-0.95447394	0.91251075	-0.17793419	-0.90805081	0.94910824	0.051937049	-1.1310766	0.94375821	-0.025123679	-1.0069974	1.4021441	-0.20167457	-1.0355726	1.394524	0.1240364	-1.1059172	1.4259241	-0.047515873	-1.0259611	1.0526	-0.26044081	-1.1684186	1.0809036	0.15030313	-0.80065977	0.94342173	-0.22697786	-1.1443351	0.85931066	0.24718624
65	0.256	-1.3578245	0.067591833	-0.12956825	-0.74618241	0.040100124	-0.017850458	-1.3454925	0.20109675	-0.17853083	-0.88041039	0.051033127	0.036823142	-1.313853	0.19997675	-0.10094615	-0.87370081	0.082597998	-0.047378	-1.3799701	0.25534664	-0.13365968	-0.93765594	0.027697624	-0.0061516918	-1.0463723	0.41978223	-0.21361107	-0.87786089	0.45458755	0.085295568	-1.0155666	0.38211767	-0.10250541	-0.89068656	0.46032043	-0.043095422	-1.0161487	0.80112521	-0.23140067	-0.94982011	0.86507637	0.14740527	-0.94844955	0.91302111	-0.17806433	-0.90154943	0.9495877	0.052114465	-1.1253303	0.94397356	-0.025208517	-1.0010679	1.4027299	-0.20181862	-1.0288462	1.3950419	0.12414181	-1.0999495	1.4269588	-0.047016322	-1.0214528	1.053212	-0.26038521	-1.1609805	1.080964	0.15130486	-0.79670356	0.94259747	-0.22763344	-1.1354787	0.85927486	0.24768242
66	0.26	-1.3444526	0.068821726	-0.13217544	-0.74602475	0.040009834	-0.017990308	-1.3338845	0.20278258	-0.17960069	-0.88039898	0.051025391	0.036877616	-1.3025954	0.20158687	-0.10189061	-0.87336401	0.082636024	-0.047421614	-1.3693753	0.25658283	-0.13511081	-0.93767684	0.02769262	-0.0061154353	-1.0342955	0.42036141	-0.21435597	-0.87590478	0.45470931	0.085606766	-1.003782	0.38330161	-0.1028889	-0.88798839	0.46057404	-0.042836983	-1.0093364	0.80180781	-0.23143415	-0.94556921	0.86552792	0.1472469	-0.94261317	0.91364407	-0.17827837	-0.89510413	0.95014968	0.052404174	-1.1197029	0.94420972	-0.025456274	-0.99513948	1.4033331	-0.20195031	-1.022202	1.3956149	0.12424163	-1.0939785	1.4280142	-0.046537006	-1.0170168	1.0538591	-0.2603863	-1.1535002	1.081055	0.15237022	-0.79293683	0.94174874	-0.22831186	-1.1264782	0.85928467	0.24812745
67	0.264	-1.3305422	0.069843603	-0.13481142	-0.74589426	0.039936906	-0.018138583	-1.3220371	0.20427851	-0.18065228	-0.88039652	0.051023655	0.036920036	-1.2910747	0.20306087	-0.10280939	-0.87308684	0.082680382	-0.047465822	-1.3587135	0.25746092	-0.13625627	-0.93770387	0.027689192	-0.0060945169	-1.0220961	0.42113667	-0.21506983	-0.87411232	0.45478086	0.085938159	-0.99196449	0.38455224	-0.10325619	-0.88558801	0.46086999	-0.042569312	-1.0027169	0.80252747	-0.23147383	-0.94111595	0.86602495	0.147073	-0.93679891	0.91437192	-0.17850864	-0.88897532	0.95077789	0.052775318	-1.114162	0.94447767	-0.025864253	-0.9892047	1.403955	-0.20205393	-1.0156594	1.3962557	0.12433834	-1.0880409	1.4290681	-0.04609746	-1.0126784	1.0545472	-0.26049085	-1.1459842	1.0811412	0.15348755	-0.78936466	0.94088591	-0.22902292	-1.1173409	0.85931088	0.24853262
68	0.268	-1.316161	0.070680267	-0.13744055	-0.74580104	0.039878965	-0.018279458	-1.3099842	0.20556957	-0.18169014	-0.88041691	0.051025474	0.036952298	-1.2792333	0.20437262	-0.10372555	-0.87288332	0.082728185	-0.047502787	-1.3480052	0.25799071	-0.13715342	-0.93774204	0.027683972	-0.0060830239	-1.0098461	0.42209496	-0.21575269	-0.87248418	0.45481759	0.086264128	-0.98013583	0.38588309	-0.10360661	-0.88343854	0.4611832	-0.042309559	-0.99628515	0.80327208	-0.23151878	-0.93642602	0.86656623	0.14689069	-0.93071419	0.91521247	-0.17863359	-0.88331341	0.95146076	0.053194949	-1.1086837	0.94478502	-0.026442822	-0.98326949	1.4045973	-0.20212008	-1.0092129	1.3969594	0.12442719	-1.0821578	1.4301052	-0.045704427	-1.0084221	1.0552683	-0.26065363	-1.1384718	1.0811897	0.15458791	-0.7858508	0.9400195	-0.22972283	-1.10808	0.85934532	0.24891093
69	0.272	-1.3014375	0.071324368	-0.14005062	-0.74575258	0.039834882	-0.018397451	-1.2977729	0.20663657	-0.18269647	-0.88047134	0.051030268	0.036974933	-1.2671009	0.20547172	-0.10463366	-0.87274641	0.082774585	-0.047527754	-1.3372191	0.2581646	-0.13777671	-0.93779424	0.027677535	-0.0060719349	-0.9976271	0.42320785	-0.21639815	-0.87100406	0.45482541	0.086568614	-0.9683257	0.38728639	-0.10392545	-0.8815071	0.46149246	-0.042064783	-0.99000865	0.80406247	-0.23156517	-0.93156531	0.86714289	0.14672556	-0.92430276	0.9161703	-0.17862946	-0.87795336	0.95220317	0.053657446	-1.103278	0.94514296	-0.027229697	-0.97734655	1.405261	-0.20214691	-1.0028671	1.397708	0.12451643	-1.0763366	1.4311174	-0.045357873	-1.0042103	1.0560079	-0.26079316	-1.1310558	1.0811746	0.15548575	-0.78218907	0.93916168	-0.23033944	-1.0987081	0.85940655	0.24927461
